TITLE ""
FILE "DISC1Track36.mp3" MP3
  TRACK 01 AUDIO
    TITLE "DISC1Track36_01"
    INDEX 01 00:00:00
  TRACK 02 AUDIO
    TITLE "DISC1Track36_02"
    INDEX 01 00:02:43
  TRACK 03 AUDIO
    TITLE "DISC1Track36_03"
    INDEX 01 00:02:64
  TRACK 04 AUDIO
    TITLE "DISC1Track36_04"
    INDEX 01 00:05:51
  TRACK 05 AUDIO
    TITLE "DISC1Track36_05"
    INDEX 01 00:08:10
  TRACK 06 AUDIO
    TITLE "DISC1Track36_06"
    INDEX 01 00:10:36
  TRACK 07 AUDIO
    TITLE "DISC1Track36_07"
    INDEX 01 00:10:60
  TRACK 08 AUDIO
    TITLE "DISC1Track36_08"
    INDEX 01 00:13:11
  TRACK 09 AUDIO
    TITLE "DISC1Track36_09"
    INDEX 01 00:15:00
  TRACK 10 AUDIO
    TITLE "DISC1Track36_10"
    INDEX 01 00:16:58
  TRACK 11 AUDIO
    TITLE "DISC1Track36_11"
    INDEX 01 00:17:05
  TRACK 12 AUDIO
    TITLE "DISC1Track36_12"
    INDEX 01 00:18:51
  TRACK 13 AUDIO
    TITLE "DISC1Track36_13"
    INDEX 01 00:20:37
  TRACK 14 AUDIO
    TITLE "DISC1Track36_14"
    INDEX 01 00:22:12
  TRACK 15 AUDIO
    TITLE "DISC1Track36_15"
    INDEX 01 00:22:35
  TRACK 16 AUDIO
    TITLE "DISC1Track36_16"
    INDEX 01 00:24:64
  TRACK 17 AUDIO
    TITLE "DISC1Track36_17"
    INDEX 01 00:27:39
  TRACK 18 AUDIO
    TITLE "DISC1Track36_18"
    INDEX 01 00:30:04
  TRACK 19 AUDIO
    TITLE "DISC1Track36_19"
    INDEX 01 00:30:25
  TRACK 20 AUDIO
    TITLE "DISC1Track36_20"
    INDEX 01 00:33:31
  TRACK 21 AUDIO
    TITLE "DISC1Track36_21"
    INDEX 01 00:36:30
  TRACK 22 AUDIO
    TITLE "DISC1Track36_22"
    INDEX 01 00:39:28
  TRACK 23 AUDIO
    TITLE "DISC1Track36_23"
    INDEX 01 00:39:51
  TRACK 24 AUDIO
    TITLE "DISC1Track36_24"
    INDEX 01 00:42:52
  TRACK 25 AUDIO
    TITLE "DISC1Track36_25"
    INDEX 01 00:45:29
  TRACK 26 AUDIO
    TITLE "DISC1Track36_26"
    INDEX 01 00:48:09
  TRACK 27 AUDIO
    TITLE "DISC1Track36_27"
    INDEX 01 00:48:31
  TRACK 28 AUDIO
    TITLE "DISC1Track36_28"
    INDEX 01 00:52:36
  TRACK 29 AUDIO
    TITLE "DISC1Track36_29"
    INDEX 01 00:55:60
  TRACK 30 AUDIO
    TITLE "DISC1Track36_30"
    INDEX 01 00:59:05
  TRACK 31 AUDIO
    TITLE "DISC1Track36_31"
    INDEX 01 00:59:31
  TRACK 32 AUDIO
    TITLE "DISC1Track36_32"
    INDEX 01 01:02:37
  TRACK 33 AUDIO
    TITLE "DISC1Track36_33"
    INDEX 01 01:05:37
  TRACK 34 AUDIO
    TITLE "DISC1Track36_34"
    INDEX 01 01:08:30
  TRACK 35 AUDIO
    TITLE "DISC1Track36_35"
    INDEX 01 01:08:53
  TRACK 36 AUDIO
    TITLE "DISC1Track36_36"
    INDEX 01 01:11:73
  TRACK 37 AUDIO
    TITLE "DISC1Track36_37"
    INDEX 01 01:14:48
  TRACK 38 AUDIO
    TITLE "DISC1Track36_38"
    INDEX 01 01:17:17
  TRACK 39 AUDIO
    TITLE "DISC1Track36_39"
    INDEX 01 01:17:38
  TRACK 40 AUDIO
    TITLE "DISC1Track36_40"
    INDEX 01 01:21:17
  TRACK 41 AUDIO
    TITLE "DISC1Track36_41"
    INDEX 01 01:24:29
  TRACK 42 AUDIO
    TITLE "DISC1Track36_42"
    INDEX 01 01:27:33
  TRACK 43 AUDIO
    TITLE "DISC1Track36_43"
    INDEX 01 01:27:56
  TRACK 44 AUDIO
    TITLE "DISC1Track36_44"
    INDEX 01 01:30:68
  TRACK 45 AUDIO
    TITLE "DISC1Track36_45"
    INDEX 01 01:34:23
  TRACK 46 AUDIO
    TITLE "DISC1Track36_46"
    INDEX 01 01:37:33
